<svg width="25" height="36" viewBox="0 0 25 36" fill="none" xmlns="http://www.w3.org/2000/svg">
<path fill-rule="evenodd" clip-rule="evenodd" d="M12.5 2.61765C12.6638 2.61765 12.8209 2.68272 12.9367 2.79855C13.0526 2.91438 13.1176 3.07148 13.1176 3.23529V9.41176H19.2941C19.4579 9.41176 19.615 9.47684 19.7309 9.59267C19.8467 9.7085 19.9118 9.8656 19.9118 10.0294C19.9118 10.1932 19.8467 10.3503 19.7309 10.4662C19.615 10.582 19.4579 10.6471 19.2941 10.6471H13.1176V16.8235C13.1176 16.9873 13.0526 17.1444 12.9367 17.2603C12.8209 17.3761 12.6638 17.4412 12.5 17.4412C12.3362 17.4412 12.1791 17.3761 12.0633 17.2603C11.9474 17.1444 11.8823 16.9873 11.8823 16.8235V10.6471H5.70588C5.54207 10.6471 5.38496 10.582 5.26913 10.4662C5.1533 10.3503 5.08823 10.1932 5.08823 10.0294C5.08823 9.8656 5.1533 9.7085 5.26913 9.59267C5.38496 9.47684 5.54207 9.41176 5.70588 9.41176H11.8823V3.23529C11.8823 3.07148 11.9474 2.91438 12.0633 2.79855C12.1791 2.68272 12.3362 2.61765 12.5 2.61765Z" fill="#262626" stroke="#262626" stroke-width="1.41176"/>
<path d="M3.40269 30.3988H6.47751L4.96551 26.1678H4.9401L3.40269 30.3988ZM4.3048 25.0751H5.63892L9.18386 34.1471H7.84975L6.85869 31.4153H3.02151L2.00504 34.1471H0.772569L4.3048 25.0751ZM10.6887 30.9198C10.6887 31.2247 10.7268 31.5297 10.8031 31.8219C10.8793 32.1141 11.0064 32.3682 11.1715 32.5969C11.3367 32.8257 11.5527 33.0162 11.8068 33.1433C12.061 33.2831 12.3659 33.3466 12.7217 33.3466C13.0774 33.3466 13.3951 33.2831 13.6492 33.1306C13.8906 32.9908 14.1066 32.8002 14.2718 32.5715C14.4242 32.3428 14.5386 32.076 14.6148 31.7711C14.6911 31.4788 14.7165 31.1739 14.7292 30.8689C14.7292 30.5513 14.6911 30.2464 14.6148 29.9414C14.5386 29.6365 14.4115 29.3697 14.2464 29.1409C14.0812 28.9122 13.8652 28.7344 13.6111 28.5946C13.3442 28.4548 13.0266 28.3786 12.6581 28.3786C12.2897 28.3786 11.9847 28.4548 11.7306 28.5946C11.4765 28.7471 11.2732 28.9377 11.1207 29.1664C10.9682 29.4078 10.8539 29.6746 10.7904 29.9795C10.7141 30.2845 10.6887 30.6021 10.6887 30.9198ZM15.7711 34.1471H14.6911V33.2577H14.6657C14.4878 33.6261 14.2082 33.8929 13.8271 34.0454C13.4459 34.2106 13.0266 34.2868 12.5692 34.2868C12.061 34.2868 11.6162 34.1979 11.2351 34.0073C10.8539 33.8294 10.549 33.5753 10.2948 33.2577C10.0407 32.9527 9.86283 32.5842 9.73578 32.1649C9.60872 31.7584 9.54519 31.3137 9.54519 30.8435C9.54519 30.3861 9.59601 29.9414 9.72307 29.5221C9.85013 29.1155 10.028 28.7471 10.2821 28.4421C10.5362 28.1372 10.8412 27.8831 11.2224 27.7052C11.6035 27.5273 12.0355 27.4384 12.5438 27.4257C12.709 27.4257 12.8868 27.4511 13.0901 27.4765C13.2807 27.5146 13.4713 27.5781 13.6746 27.6544C13.8652 27.7306 14.0431 27.8449 14.221 27.972C14.3988 28.0991 14.5386 28.2642 14.6657 28.4548H14.6911V25.0751H15.7711V34.1471ZM18.2204 30.9198C18.2204 31.2247 18.2585 31.5297 18.3348 31.8219C18.411 32.1141 18.5381 32.3682 18.7033 32.5969C18.8684 32.8257 19.0844 33.0162 19.3385 33.1433C19.5927 33.2831 19.8976 33.3466 20.2534 33.3466C20.6091 33.3466 20.9268 33.2831 21.1809 33.1306C21.4223 32.9908 21.6383 32.8002 21.8035 32.5715C21.956 32.3428 22.0703 32.076 22.1465 31.7711C22.2228 31.4788 22.2482 31.1739 22.2609 30.8689C22.2609 30.5513 22.2228 30.2464 22.1465 29.9414C22.0703 29.6365 21.9433 29.3697 21.7781 29.1409C21.6129 28.9122 21.3969 28.7344 21.1428 28.5946C20.876 28.4548 20.5583 28.3786 20.1898 28.3786C19.8214 28.3786 19.5164 28.4548 19.2623 28.5946C19.0082 28.7471 18.8049 28.9377 18.6524 29.1664C18.5 29.4078 18.3856 29.6746 18.3221 29.9795C18.2458 30.2845 18.2204 30.6021 18.2204 30.9198ZM23.3028 34.1471H22.2228V33.2577H22.1974C22.0195 33.6261 21.74 33.8929 21.3588 34.0454C20.9776 34.2106 20.5583 34.2868 20.1009 34.2868C19.5927 34.2868 19.148 34.1979 18.7668 34.0073C18.3856 33.8294 18.0807 33.5753 17.8265 33.2577C17.5724 32.9527 17.3945 32.5842 17.2675 32.1649C17.1404 31.7584 17.0769 31.3137 17.0769 30.8435C17.0769 30.3861 17.1277 29.9414 17.2548 29.5221C17.3818 29.1155 17.5597 28.7471 17.8138 28.4421C18.068 28.1372 18.3729 27.8831 18.7541 27.7052C19.1353 27.5273 19.5673 27.4384 20.0755 27.4257C20.2407 27.4257 20.4185 27.4511 20.6218 27.4765C20.8124 27.5146 21.003 27.5781 21.2063 27.6544C21.3969 27.7306 21.5748 27.8449 21.7527 27.972C21.9305 28.0991 22.0703 28.2642 22.1974 28.4548H22.2228V25.0751H23.3028V34.1471Z" fill="black"/>
</svg>
