<svg width="8" height="14" viewBox="0 0 8 14" fill="none" xmlns="http://www.w3.org/2000/svg">
<path fill-rule="evenodd" clip-rule="evenodd" d="M0.986798 0.772962C0.940235 0.819408 0.903292 0.874583 0.878086 0.935328C0.852879 0.996074 0.839905 1.06119 0.839905 1.12696C0.839905 1.19273 0.852879 1.25785 0.878086 1.3186C0.903292 1.37934 0.940235 1.43452 0.986798 1.48096L6.6338 7.12696L0.986798 12.773C0.94031 12.8194 0.903433 12.8746 0.878274 12.9354C0.853115 12.9961 0.840166 13.0612 0.840166 13.127C0.840166 13.1927 0.853115 13.2578 0.878274 13.3185C0.903433 13.3793 0.94031 13.4345 0.986798 13.481C1.03329 13.5274 1.08847 13.5643 1.14921 13.5895C1.20995 13.6146 1.27505 13.6276 1.3408 13.6276C1.40654 13.6276 1.47164 13.6146 1.53238 13.5895C1.59312 13.5643 1.64831 13.5274 1.6948 13.481L7.6948 7.48096C7.74136 7.43452 7.7783 7.37934 7.80351 7.3186C7.82872 7.25785 7.84169 7.19273 7.84169 7.12696C7.84169 7.06119 7.82872 6.99607 7.80351 6.93533C7.7783 6.87458 7.74136 6.81941 7.6948 6.77296L1.6948 0.772962C1.64835 0.726399 1.59318 0.689456 1.53243 0.664249C1.47169 0.639043 1.40657 0.626068 1.3408 0.626068C1.27503 0.626068 1.20991 0.639043 1.14916 0.664249C1.08842 0.689456 1.03324 0.726399 0.986798 0.772962V0.772962Z" fill="#262626"/>
</svg>
