<svg width="8" height="14" viewBox="0 0 8 14" fill="none" xmlns="http://www.w3.org/2000/svg">
<path fill-rule="evenodd" clip-rule="evenodd" d="M7.69484 13.4809C7.74141 13.4345 7.77835 13.3793 7.80355 13.3186C7.82876 13.2578 7.84174 13.1927 7.84174 13.1269C7.84174 13.0612 7.82876 12.9961 7.80355 12.9353C7.77835 12.8746 7.74141 12.8194 7.69484 12.7729L2.04784 7.12694L7.69484 1.48094C7.74133 1.43446 7.77821 1.37927 7.80337 1.31853C7.82852 1.25779 7.84147 1.19269 7.84147 1.12694C7.84147 1.0612 7.82852 0.9961 7.80337 0.935361C7.77821 0.874621 7.74133 0.819432 7.69484 0.772944C7.64835 0.726457 7.59316 0.68958 7.53243 0.664421C7.47169 0.639262 7.40659 0.626313 7.34084 0.626313C7.2751 0.626313 7.21 0.639262 7.14926 0.664421C7.08852 0.68958 7.03333 0.726457 6.98684 0.772944L0.986842 6.77294C0.940279 6.81939 0.903336 6.87457 0.87813 6.93531C0.852923 6.99606 0.839948 7.06118 0.839948 7.12694C0.839948 7.19271 0.852923 7.25783 0.87813 7.31858C0.903336 7.37932 0.940279 7.4345 0.986842 7.48094L6.98684 13.4809C7.03329 13.5275 7.08846 13.5645 7.14921 13.5897C7.20995 13.6149 7.27507 13.6278 7.34084 13.6278C7.40661 13.6278 7.47173 13.6149 7.53248 13.5897C7.59322 13.5645 7.6484 13.5275 7.69484 13.4809Z" fill="#262626"/>
</svg>
