<svg width="5" height="17" viewBox="0 0 5 17" fill="none" xmlns="http://www.w3.org/2000/svg">
<path d="M4.54541 14.8516C4.54541 15.3488 4.34787 15.8258 3.99624 16.1774C3.6446 16.529 3.16769 16.7266 2.67041 16.7266C2.17313 16.7266 1.69622 16.529 1.34458 16.1774C0.992954 15.8258 0.79541 15.3488 0.79541 14.8516C0.79541 14.3543 0.992954 13.8774 1.34458 13.5257C1.69622 13.1741 2.17313 12.9766 2.67041 12.9766C3.16769 12.9766 3.6446 13.1741 3.99624 13.5257C4.34787 13.8774 4.54541 14.3543 4.54541 14.8516ZM4.54541 8.60156C4.54541 9.09884 4.34787 9.57576 3.99624 9.92739C3.6446 10.279 3.16769 10.4766 2.67041 10.4766C2.17313 10.4766 1.69622 10.279 1.34458 9.92739C0.992954 9.57576 0.79541 9.09884 0.79541 8.60156C0.79541 8.10428 0.992954 7.62737 1.34458 7.27574C1.69622 6.92411 2.17313 6.72656 2.67041 6.72656C3.16769 6.72656 3.6446 6.92411 3.99624 7.27574C4.34787 7.62737 4.54541 8.10428 4.54541 8.60156ZM4.54541 2.35156C4.54541 2.84884 4.34787 3.32576 3.99624 3.67739C3.6446 4.02902 3.16769 4.22656 2.67041 4.22656C2.17313 4.22656 1.69622 4.02902 1.34458 3.67739C0.992954 3.32576 0.79541 2.84884 0.79541 2.35156C0.79541 1.85428 0.992954 1.37737 1.34458 1.02574C1.69622 0.674107 2.17313 0.476563 2.67041 0.476562C3.16769 0.476563 3.6446 0.674107 3.99624 1.02574C4.34787 1.37737 4.54541 1.85428 4.54541 2.35156Z" fill="#262626"/>
</svg>
