<svg width="26" height="29" viewBox="0 0 26 29" fill="none" xmlns="http://www.w3.org/2000/svg">
<g clip-path="url(#clip0_3_10725)">
<rect width="14" height="15" transform="translate(6 0.5)" fill="white" fill-opacity="0.01"/>
<path d="M6.5 1.5C6.5 1.36739 6.55268 1.24021 6.64645 1.14645C6.74021 1.05268 6.86739 1 7 1H19C19.1326 1 19.2598 1.05268 19.3536 1.14645C19.4473 1.24021 19.5 1.36739 19.5 1.5V3.5C19.5 3.62331 19.4544 3.74226 19.372 3.834L15 8.692V13.5C14.9999 13.6049 14.9669 13.7071 14.9055 13.7922C14.8441 13.8772 14.7575 13.9409 14.658 13.974L11.658 14.974C11.5829 14.999 11.5029 15.0058 11.4246 14.9939C11.3463 14.982 11.272 14.9516 11.2077 14.9053C11.1435 14.859 11.0912 14.7982 11.055 14.7277C11.0189 14.6572 11.0001 14.5792 11 14.5V8.692L6.628 3.834C6.54561 3.74226 6.50002 3.62331 6.5 3.5V1.5Z" fill="#262626"/>
</g>
<path d="M1.358 20.146H6.517V21.026H2.403V23.523H6.011V24.403H2.403V28H1.358V20.146ZM8.51041 21.29H7.57541V20.146H8.51041V21.29ZM7.57541 22.313H8.51041V28H7.57541V22.313ZM10.0139 20.146H10.9489V28H10.0139V20.146ZM13.6954 22.313H14.8284V23.138H13.6954V26.669C13.6954 26.779 13.6954 26.867 13.7174 26.933C13.7394 26.999 13.7724 27.054 13.8274 27.087C13.8714 27.131 13.9484 27.153 14.0364 27.164C14.1244 27.175 14.2454 27.175 14.3994 27.175H14.8284V28H14.1134C13.8714 28 13.6624 27.989 13.4864 27.956C13.3104 27.923 13.1784 27.857 13.0684 27.769C12.9584 27.681 12.8814 27.56 12.8374 27.395C12.7824 27.241 12.7604 27.021 12.7604 26.757V23.138H11.7924V22.313H12.7604V20.608H13.6954V22.313ZM19.8161 24.612C19.7941 24.392 19.7501 24.183 19.6621 23.985C19.5741 23.787 19.4641 23.622 19.3211 23.479C19.1781 23.336 19.0131 23.226 18.8151 23.138C18.6171 23.05 18.4081 23.017 18.1771 23.006C17.9351 23.006 17.7151 23.05 17.5171 23.138C17.3191 23.226 17.1541 23.336 17.0221 23.479C16.8791 23.633 16.7691 23.798 16.6921 23.996C16.6041 24.194 16.5601 24.392 16.5491 24.612H19.8161ZM20.7181 26.196C20.5861 26.834 20.3111 27.318 19.8931 27.637C19.4641 27.967 18.9251 28.121 18.2871 28.121C17.8251 28.121 17.4291 28.055 17.0991 27.901C16.7691 27.758 16.4831 27.549 16.2631 27.285C16.0321 27.021 15.8561 26.713 15.7461 26.339C15.6361 25.976 15.5701 25.58 15.5591 25.14C15.5591 24.711 15.6251 24.315 15.7571 23.952C15.8891 23.6 16.0651 23.281 16.3071 23.017C16.5491 22.753 16.8241 22.555 17.1541 22.401C17.4841 22.258 17.8361 22.192 18.2321 22.181C18.7381 22.181 19.1561 22.291 19.4861 22.5C19.8161 22.709 20.0911 22.973 20.2891 23.292C20.4871 23.622 20.6301 23.974 20.7071 24.348C20.7841 24.733 20.8171 25.096 20.8061 25.437H16.5491C16.5381 25.69 16.5711 25.932 16.6371 26.152C16.7031 26.372 16.8021 26.57 16.9561 26.746C17.0991 26.922 17.2861 27.054 17.5171 27.153C17.7371 27.263 18.0121 27.307 18.3201 27.307C18.7161 27.307 19.0351 27.219 19.2881 27.032C19.5411 26.856 19.7061 26.57 19.7941 26.196H20.7181ZM21.7423 22.313H22.6223V23.512H22.6443C22.8643 23.05 23.1503 22.709 23.4803 22.489C23.8103 22.269 24.2283 22.17 24.7343 22.181V23.171C24.3603 23.171 24.0413 23.226 23.7773 23.325C23.5133 23.435 23.2933 23.578 23.1393 23.776C22.9743 23.974 22.8533 24.216 22.7873 24.502C22.7103 24.788 22.6773 25.107 22.6773 25.47V28H21.7423V22.313Z" fill="#262626"/>
<defs>
<clipPath id="clip0_3_10725">
<rect width="14" height="15" fill="white" transform="translate(6 0.5)"/>
</clipPath>
</defs>
</svg>
