<svg width="13" height="17" viewBox="0 0 13 17" fill="none" xmlns="http://www.w3.org/2000/svg">
<path d="M4.15815 6.88312C4.11671 6.8309 4.06525 6.78749 4.00678 6.75544C3.94832 6.7234 3.88403 6.70337 3.81771 6.69654C3.75139 6.68971 3.68438 6.69621 3.62061 6.71566C3.55684 6.73511 3.4976 6.76711 3.44638 6.8098C3.39516 6.85248 3.353 6.90497 3.32237 6.96419C3.29174 7.02341 3.27326 7.08815 3.26802 7.15462C3.26278 7.22108 3.27089 7.28792 3.29186 7.35121C3.31284 7.41449 3.34626 7.47295 3.39016 7.52313L5.62315 10.2031L3.39016 12.8831C3.30902 12.9854 3.27109 13.1153 3.28447 13.2451C3.29785 13.375 3.36147 13.4945 3.46174 13.578C3.56202 13.6616 3.691 13.7026 3.82113 13.6924C3.95125 13.6821 4.07221 13.6214 4.15815 13.5231L6.27415 10.9841L8.39015 13.5241C8.47516 13.626 8.59713 13.6899 8.72925 13.7018C8.79467 13.7077 8.86061 13.7006 8.92331 13.681C8.986 13.6615 9.04423 13.6297 9.09466 13.5876C9.14508 13.5455 9.18673 13.4939 9.21721 13.4357C9.24769 13.3776 9.26641 13.3139 9.27231 13.2485C9.27821 13.1831 9.27116 13.1172 9.25157 13.0545C9.23199 12.9918 9.20024 12.9336 9.15815 12.8831L6.92515 10.2031L9.15815 7.52313C9.23929 7.42087 9.27722 7.29095 9.26384 7.1611C9.25046 7.03126 9.18684 6.9118 9.08657 6.82823C8.98629 6.74467 8.85731 6.70363 8.72718 6.71389C8.59706 6.72415 8.4761 6.78488 8.39015 6.88312L6.27415 9.42212L4.15815 6.88312Z" fill="#00955F"/>
<path d="M12.2742 14.2031V4.70312L7.77415 0.203125H2.27415C1.74372 0.203125 1.23501 0.413839 0.859941 0.788911C0.484868 1.16398 0.274155 1.67269 0.274155 2.20312V14.2031C0.274155 14.7336 0.484868 15.2423 0.859941 15.6173C1.23501 15.9924 1.74372 16.2031 2.27415 16.2031H10.2742C10.8046 16.2031 11.3133 15.9924 11.6884 15.6173C12.0634 15.2423 12.2742 14.7336 12.2742 14.2031ZM7.77415 3.20312C7.77415 3.60095 7.93219 3.98248 8.21349 4.26379C8.4948 4.54509 8.87633 4.70312 9.27415 4.70312H11.2742V14.2031C11.2742 14.4683 11.1688 14.7227 10.9813 14.9102C10.7937 15.0978 10.5394 15.2031 10.2742 15.2031H2.27415C2.00894 15.2031 1.75458 15.0978 1.56705 14.9102C1.37951 14.7227 1.27415 14.4683 1.27415 14.2031V2.20312C1.27415 1.93791 1.37951 1.68355 1.56705 1.49602C1.75458 1.30848 2.00894 1.20312 2.27415 1.20312H7.77415V3.20312Z" fill="#00955F"/>
</svg>
