<svg width="14" height="16" viewBox="0 0 14 16" fill="none" xmlns="http://www.w3.org/2000/svg">
<path d="M7.73607 0.203125C7.72448 0.205066 7.71305 0.207698 7.70183 0.211004H1.41149C0.806003 0.211004 0.307487 0.66557 0.307487 1.22742V13.5356C0.307487 14.0977 0.806003 14.552 1.41149 14.552H2.23308V14.6949C2.23308 14.9757 2.47825 15.2031 2.78081 15.2031H12.7598C13.0623 15.2031 13.3075 14.9757 13.3075 14.6949V11.328C13.3075 11.0473 13.0623 10.8198 12.7598 10.8198H12.0409V4.02256C12.0403 4.0038 12.0374 3.98517 12.0324 3.96699C12.0324 3.96436 12.0324 3.96174 12.0324 3.95911C12.0297 3.95377 12.0269 3.94851 12.0239 3.94335C12.0239 3.94073 12.0239 3.9381 12.0239 3.93548C12.0213 3.93005 12.0184 3.92471 12.0154 3.91947C12.0126 3.91679 12.0098 3.91416 12.0069 3.91159C12.0069 3.90897 12.0069 3.90634 12.0069 3.90371C12.0041 3.90103 12.0013 3.89842 11.9984 3.89585C11.9958 3.89051 11.9929 3.88525 11.9899 3.88009C11.9872 3.87741 11.9843 3.87478 11.9814 3.87221C11.9788 3.86679 11.976 3.86145 11.9729 3.85621C11.9702 3.85352 11.9673 3.8509 11.9645 3.84833C11.9617 3.84565 11.9589 3.84302 11.956 3.84045L7.96781 0.275026C7.95955 0.26933 7.95096 0.264083 7.94207 0.259284C7.93642 0.256472 7.93066 0.253843 7.92481 0.251405C7.87746 0.219868 7.8205 0.203163 7.76222 0.20373C7.75364 0.203355 7.74505 0.203355 7.73648 0.20373L7.73607 0.203125ZM1.41149 0.719289H7.49643V3.25237C7.49643 3.81437 7.99506 4.27674 8.60044 4.27674H11.4931V10.8199H2.78081C2.47825 10.8199 2.23308 11.0474 2.23308 11.3281V14.0438H1.41149C1.10227 14.0438 0.855216 13.8233 0.855216 13.5356V1.2275C0.855216 0.940562 1.10227 0.719289 1.41149 0.719289ZM8.04416 1.06073L10.8855 3.58591L11.0909 3.76853H8.60044C8.29111 3.76853 8.04416 3.53966 8.04416 3.25237V1.06073ZM1.7966 4.85643C1.72398 4.86592 1.6584 4.90179 1.61427 4.95614C1.57015 5.01049 1.5511 5.07889 1.56132 5.14627C1.57153 5.21365 1.61017 5.27451 1.66874 5.31546C1.72731 5.35641 1.80101 5.3741 1.87364 5.36464H10.5089C10.5452 5.36511 10.5813 5.35889 10.6149 5.34634C10.6486 5.33378 10.6793 5.31514 10.7051 5.2915C10.731 5.26785 10.7515 5.23968 10.7655 5.20862C10.7795 5.17755 10.7867 5.14421 10.7867 5.11053C10.7867 5.07686 10.7795 5.04352 10.7655 5.01245C10.7515 4.98139 10.731 4.95322 10.7051 4.92957C10.6793 4.90593 10.6486 4.88729 10.6149 4.87473C10.5813 4.86218 10.5452 4.85595 10.5089 4.85643H1.87364C1.85656 4.85494 1.83937 4.85494 1.82229 4.85643C1.81371 4.85606 1.80512 4.85606 1.79654 4.85643H1.7966ZM1.7966 6.35722C1.72398 6.36671 1.6584 6.40257 1.61427 6.45692C1.57015 6.51128 1.5511 6.57967 1.56132 6.64705C1.57153 6.71443 1.61017 6.77529 1.66874 6.81624C1.72731 6.85719 1.80101 6.87488 1.87364 6.86542H10.5089C10.5452 6.8659 10.5813 6.85968 10.6149 6.84712C10.6486 6.83457 10.6793 6.81592 10.7051 6.79228C10.731 6.76864 10.7515 6.74047 10.7655 6.7094C10.7795 6.67833 10.7867 6.64499 10.7867 6.61132C10.7867 6.57764 10.7795 6.5443 10.7655 6.51324C10.7515 6.48217 10.731 6.454 10.7051 6.43036C10.6793 6.40671 10.6486 6.38807 10.6149 6.37552C10.5813 6.36296 10.5452 6.35674 10.5089 6.35722H1.87364C1.85656 6.35572 1.83937 6.35572 1.82229 6.35722C1.81371 6.35684 1.80512 6.35684 1.79654 6.35722H1.7966ZM1.7966 7.858C1.72398 7.86749 1.6584 7.90336 1.61427 7.95771C1.57015 8.01206 1.5511 8.08046 1.56132 8.14784C1.57153 8.21522 1.61017 8.27608 1.66874 8.31703C1.72731 8.35798 1.80101 8.37567 1.87364 8.36621H10.5089C10.5452 8.36668 10.5813 8.36046 10.6149 8.34791C10.6486 8.33535 10.6793 8.31671 10.7051 8.29307C10.731 8.26942 10.7515 8.24125 10.7655 8.21019C10.7795 8.17912 10.7867 8.14578 10.7867 8.1121C10.7867 8.07843 10.7795 8.04509 10.7655 8.01402C10.7515 7.98296 10.731 7.95478 10.7051 7.93114C10.6793 7.9075 10.6486 7.88886 10.6149 7.8763C10.5813 7.86375 10.5452 7.85752 10.5089 7.858H1.87364C1.85656 7.85651 1.83937 7.85651 1.82229 7.858C1.81371 7.85763 1.80512 7.85763 1.79654 7.858H1.7966ZM1.84798 9.35086C1.77535 9.35404 1.70706 9.38385 1.65812 9.43374C1.60918 9.48363 1.58361 9.54952 1.58702 9.61691C1.59043 9.68429 1.62256 9.74766 1.67632 9.79308C1.73009 9.83849 1.80109 9.86223 1.87372 9.85907H6.52085C6.55714 9.85954 6.59317 9.85332 6.62684 9.84077C6.66052 9.82821 6.69117 9.80957 6.71702 9.78593C6.74286 9.76228 6.76338 9.73411 6.77739 9.70304C6.7914 9.67198 6.79861 9.63864 6.79861 9.60496C6.79861 9.57129 6.7914 9.53795 6.77739 9.50688C6.76338 9.47582 6.74286 9.44764 6.71702 9.424C6.69117 9.40036 6.66052 9.38172 6.62684 9.36916C6.59317 9.3566 6.55714 9.35038 6.52085 9.35086H1.87372C1.86514 9.35049 1.85655 9.35049 1.84798 9.35086ZM5.48523 12.011C5.74274 12.011 5.94918 12.0841 6.10997 12.2254C6.20571 12.3089 6.27609 12.4264 6.32394 12.5827L5.90457 12.678C5.87965 12.5768 5.82953 12.4984 5.75055 12.4398C5.67154 12.3812 5.57254 12.3445 5.45954 12.3445C5.30349 12.3445 5.18017 12.3994 5.08297 12.5033C4.98581 12.6073 4.9375 12.7788 4.9375 13.0115C4.9375 13.2585 4.97869 13.4308 5.07443 13.5356C5.17015 13.6404 5.29782 13.6944 5.45099 13.6944C5.56394 13.6944 5.66058 13.6578 5.74198 13.5912C5.82334 13.5245 5.88627 13.4245 5.92171 13.2815L6.33251 13.4007C6.2693 13.6138 6.1628 13.7736 6.01584 13.8771C5.86888 13.9806 5.68545 14.028 5.45954 14.028C5.18001 14.028 4.94629 13.9431 4.76633 13.7659C4.58635 13.5887 4.49247 13.3427 4.49247 13.0354C4.49247 12.7103 4.58539 12.4609 4.76633 12.281C4.94727 12.1011 5.19036 12.011 5.48523 12.011ZM7.43651 12.011C7.70074 12.011 7.89348 12.0623 8.02702 12.1698C8.16058 12.2773 8.23431 12.4192 8.24099 12.5986L7.81308 12.6225C7.795 12.5222 7.76164 12.4442 7.70183 12.4002C7.64199 12.3562 7.54762 12.3367 7.42797 12.3366C7.30448 12.3367 7.20685 12.3611 7.13696 12.4081C7.09196 12.4384 7.06849 12.4766 7.06849 12.5272C7.06849 12.5735 7.09478 12.6135 7.13696 12.6464C7.19061 12.6881 7.31533 12.736 7.5221 12.7813C7.72889 12.8267 7.88516 12.8679 7.98424 12.9163C8.08333 12.9648 8.15932 13.0308 8.21533 13.1149C8.27131 13.1988 8.30088 13.309 8.30088 13.4325C8.30088 13.5444 8.26523 13.6445 8.19819 13.7422C8.13117 13.8399 8.03833 13.917 7.91578 13.9645C7.79325 14.012 7.63646 14.036 7.45363 14.036C7.18749 14.036 6.98863 13.9755 6.84601 13.8613C6.70332 13.7471 6.617 13.5795 6.58923 13.361L7.00003 13.3213C7.02495 13.4501 7.07797 13.5468 7.1541 13.6072C7.23021 13.6676 7.33294 13.7024 7.4622 13.7024C7.59908 13.7024 7.70087 13.6689 7.7703 13.6151C7.83967 13.5614 7.873 13.5044 7.873 13.4325C7.873 13.3862 7.85958 13.3458 7.83019 13.3134C7.801 13.281 7.74888 13.25 7.67614 13.226C7.62636 13.21 7.51949 13.1795 7.34236 13.1387C7.1145 13.0863 6.94646 13.0245 6.85455 12.9481C6.72531 12.8406 6.66627 12.7136 6.66627 12.559C6.66627 12.4596 6.69119 12.3597 6.75185 12.2731C6.81265 12.1866 6.90278 12.1279 7.01717 12.0825C7.13159 12.0373 7.27474 12.0111 7.43651 12.0111V12.011ZM8.44639 12.0428H8.90854L9.43915 13.488L9.95265 12.0428H10.4062L9.65312 13.9962H9.19952L8.44639 12.0428ZM3.75646 13.623H4.15868V13.9962H3.75646V13.623Z" fill="#317BC3"/>
</svg>
