<svg width="16" height="17" viewBox="0 0 16 17" fill="none" xmlns="http://www.w3.org/2000/svg">
<path d="M7.58268 12.2493C7.37085 12.2493 7.23404 12.2663 7.15303 12.2832V14.7732C7.2342 14.7902 7.36496 14.7902 7.48309 14.7902C8.34213 14.7957 8.9026 14.3668 8.9026 13.4577C8.90868 12.6671 8.39825 12.2493 7.58268 12.2493Z" fill="#CB3451"/>
<path d="M3.91499 12.2383C3.72209 12.2383 3.59134 12.2552 3.52266 12.272V13.3958C3.60373 13.4127 3.70342 13.4185 3.83987 13.4185C4.3446 13.4185 4.65576 13.1869 4.65576 12.7973C4.65579 12.4473 4.38791 12.2383 3.91499 12.2383Z" fill="#CB3451"/>
<path d="M14.2374 4.0373C14.2364 3.96392 14.2107 3.89145 14.1552 3.83416L10.7533 0.31043C10.7526 0.309443 10.7513 0.309123 10.7506 0.308223C10.7303 0.287685 10.707 0.27075 10.682 0.255819C10.6746 0.251462 10.6668 0.24754 10.659 0.243561C10.6374 0.232929 10.6147 0.224098 10.5908 0.217649C10.5847 0.215964 10.5786 0.213582 10.5722 0.212072C10.5465 0.206437 10.5199 0.203125 10.4931 0.203125H2.13271C1.75127 0.203125 1.44082 0.484693 1.44082 0.830603V15.5756C1.44082 15.9217 1.75127 16.2031 2.13271 16.2031H13.5489C13.9303 16.2031 14.2408 15.9217 14.2408 15.5756V4.07245C14.2408 4.06066 14.2388 4.0491 14.2374 4.0373ZM5.20973 13.678C4.88608 13.9546 4.40663 14.079 3.84616 14.079C3.72181 14.079 3.60941 14.0732 3.52258 14.0622V15.4228H2.58244V11.6679C2.87492 11.6228 3.28608 11.5888 3.86522 11.5888C4.45035 11.5888 4.86756 11.6905 5.14765 11.8937C5.41554 12.0857 5.59562 12.4019 5.59562 12.7745C5.59562 13.1473 5.45897 13.4635 5.20973 13.678ZM9.21344 14.9712C8.77188 15.3042 8.09943 15.4623 7.27781 15.4623C6.78583 15.4623 6.43735 15.4341 6.20035 15.4059V11.6679C6.54908 11.6173 7.00381 11.5888 7.4831 11.5888C8.27964 11.5888 8.79654 11.7187 9.20146 11.9954C9.63741 12.289 9.91141 12.7576 9.91141 13.4295C9.91106 14.158 9.61848 14.6605 9.21344 14.9712ZM13.0996 12.3229H11.4867V13.1924H12.9935V13.8927H11.4867V15.4228H10.5344V11.6173H13.0996V12.3229ZM2.13271 10.8567V0.830603H10.1472V4.0409C10.1472 4.21406 10.3019 4.35463 10.4931 4.35463H13.5489L13.5492 10.8567H2.13271Z" fill="#CB3451"/>
<path d="M11.3901 6.94629C11.3698 6.94458 10.8823 6.90423 10.134 6.90423C9.89959 6.90423 9.66345 6.90838 9.43032 6.91634C7.95259 5.91068 6.74223 4.90423 6.09426 4.3402C6.10608 4.27809 6.11422 4.229 6.118 4.1913C6.20346 3.37314 6.10845 2.82081 5.83656 2.54962C5.65853 2.37239 5.39705 2.31342 5.1244 2.38096C4.95508 2.42119 4.64164 2.57015 4.54129 2.87339C4.43049 3.2085 4.60859 3.61521 5.07648 4.08684C5.08391 4.09398 5.24269 4.24486 5.5312 4.50052C5.34369 5.31135 4.85283 7.06109 4.61467 7.90132C4.0553 8.17237 3.58923 8.49888 3.22843 8.87343L3.20479 8.89795L3.18951 8.92737C3.15235 8.99816 2.97473 9.36563 3.10808 9.66082C3.16897 9.79502 3.28307 9.89306 3.43807 9.94454L3.47962 9.95467C3.47962 9.95467 3.5171 9.96202 3.58299 9.96202C3.8716 9.96202 4.58399 9.82448 4.9661 8.5475L5.05867 8.22396C6.39245 7.63605 8.05968 7.44639 9.26815 7.39355C9.88976 7.81159 10.5083 8.19561 11.1077 8.53568L11.1272 8.54597C11.1563 8.55944 11.4191 8.67712 11.7269 8.67738C12.1668 8.67738 12.4881 8.43259 12.6077 8.00598L12.6137 7.97682C12.6472 7.73301 12.5796 7.51326 12.4185 7.34147C12.079 6.97958 11.4469 6.94803 11.3901 6.94629ZM3.59375 9.4912C3.59106 9.4883 3.58978 9.48557 3.58843 9.48249C3.55973 9.41983 3.59417 9.26785 3.64484 9.15651C3.8624 8.93591 4.12356 8.73342 4.42492 8.55111C4.13144 9.41263 3.70464 9.48711 3.59375 9.4912ZM5.45711 3.76722C5.00642 3.31226 5.01318 3.0867 5.03743 3.01076C5.07721 2.88385 5.25679 2.83589 5.25832 2.83545C5.34878 2.81315 5.40368 2.81753 5.45256 2.86619C5.56311 2.97631 5.65805 3.30866 5.62054 3.91827C5.51413 3.8213 5.45711 3.76722 5.45711 3.76722ZM5.22424 7.64151L5.23202 7.61455L5.231 7.61487C5.45666 6.81333 5.78211 5.63969 5.96924 4.88579L5.976 4.89163L5.97667 4.88803C6.58207 5.40503 7.51036 6.16125 8.62184 6.94777L8.60934 6.94824L8.62773 6.96081C7.58067 7.04102 6.33008 7.22821 5.22424 7.64151ZM12.1006 7.90446C12.0209 8.17013 11.8675 8.20645 11.727 8.20645C11.5638 8.20645 11.4067 8.14486 11.3709 8.12999C10.9628 7.89801 10.5452 7.64523 10.1239 7.37479C10.1273 7.37479 10.1303 7.37479 10.134 7.37479C10.8563 7.37479 11.3374 7.41455 11.3563 7.41577C11.4769 7.41984 11.8587 7.47096 12.0232 7.64636C12.0877 7.71512 12.1124 7.7973 12.1006 7.90446Z" fill="#CB3451"/>
</svg>
