<svg width="10" height="14" viewBox="0 0 10 14" fill="none" xmlns="http://www.w3.org/2000/svg">
<path d="M1.70181 0.220188C1.74368 0.182487 1.79336 0.152604 1.84803 0.13225C1.9027 0.111895 1.96128 0.101468 2.02041 0.101563H8.32041C8.43976 0.101563 8.55422 0.144364 8.63861 0.220551C8.723 0.296738 8.77041 0.400069 8.77041 0.507813C8.77041 1.06031 8.46261 1.46169 8.18901 1.7095C8.07561 1.81106 7.96401 1.8915 7.87041 1.95163V5.55181L7.94061 5.59081C8.12331 5.694 8.36901 5.84594 8.61651 6.04175C9.09441 6.41875 9.67041 7.02975 9.67041 7.82031C9.67041 7.92806 9.623 8.03139 9.53861 8.10758C9.45422 8.18376 9.33976 8.22656 9.22041 8.22656H5.62041V11.8828C5.62041 12.1071 5.41881 13.1016 5.17041 13.1016C4.92201 13.1016 4.72041 12.1071 4.72041 11.8828V8.22656H1.12041C1.00106 8.22656 0.886604 8.18376 0.802212 8.10758C0.717821 8.03139 0.67041 7.92806 0.67041 7.82031C0.67041 7.02975 1.24641 6.41875 1.72341 6.04175C1.95624 5.85923 2.20618 5.69531 2.47041 5.55181V1.95163C2.35692 1.87908 2.25034 1.79809 2.15181 1.7095C1.87821 1.46169 1.57041 1.0595 1.57041 0.507813C1.5703 0.454428 1.58186 0.401547 1.6044 0.352195C1.62695 0.302842 1.66005 0.257985 1.70181 0.220188Z" fill="#F47B24"/>
</svg>
