<svg width="9" height="14" viewBox="0 0 9 14" fill="none" xmlns="http://www.w3.org/2000/svg">
<path d="M1 0.5H8V0.778C8 1.184 7.914 1.556 7.742 1.895C7.57 2.234 7.322 2.525 7 2.77V5.63C7.307 5.775 7.583 5.958 7.828 6.176C8.073 6.395 8.284 6.64 8.461 6.911C8.638 7.181 8.771 7.476 8.859 7.793C8.948 8.111 8.995 8.439 9 8.778V9.278H5V12.5L4.5 13.5L4 12.5V9.278H0V8.778C0 8.439 0.0470001 8.114 0.14 7.801C0.234 7.489 0.367 7.194 0.54 6.918C0.890889 6.35568 1.39831 5.90803 2 5.63V2.77C1.69259 2.5373 1.44168 2.2382 1.266 1.895C1.09204 1.54828 1.00099 1.16591 1 0.778V0.5ZM2.086 1.278C2.128 1.403 2.18 1.51 2.242 1.598C2.36333 1.77249 2.5205 1.91909 2.703 2.028L3 2.215V6.317L2.664 6.434C2.253 6.58 1.904 6.817 1.617 7.145C1.331 7.473 1.09 8.073 1 8.5H8C7.912 8.073 7.67 7.473 7.383 7.145C7.10198 6.82097 6.74101 6.57618 6.336 6.435L6 6.316V2.215L6.297 2.035C6.391 1.978 6.474 1.913 6.547 1.84C6.62259 1.76436 6.69276 1.68349 6.757 1.598C6.82869 1.50197 6.88193 1.39347 6.914 1.278H2.086Z" fill="black"/>
</svg>
