<svg width="16" height="17" viewBox="0 0 16 17" fill="none" xmlns="http://www.w3.org/2000/svg">
<path d="M11.7419 10.844C12.7102 9.52267 13.1439 7.88447 12.9562 6.25713C12.7685 4.62979 11.9733 3.13332 10.7297 2.06711C9.48604 1.0009 7.88567 0.443582 6.24876 0.506655C4.61184 0.569728 3.05911 1.24854 1.90119 2.40729C0.743273 3.56603 0.0655718 5.11926 0.00366997 6.75621C-0.0582319 8.39317 0.500231 9.99314 1.56733 11.236C2.63443 12.4789 4.13147 13.273 5.75894 13.4596C7.38642 13.6461 9.0243 13.2112 10.3449 12.242H10.3439C10.3739 12.282 10.4059 12.32 10.4419 12.357L14.2919 16.207C14.4794 16.3946 14.7338 16.5001 14.9991 16.5002C15.2643 16.5003 15.5188 16.395 15.7064 16.2075C15.8941 16.02 15.9995 15.7656 15.9996 15.5003C15.9997 15.2351 15.8944 14.9806 15.7069 14.793L11.8569 10.943C11.8212 10.9068 11.7827 10.8734 11.7419 10.843V10.844ZM11.9999 6.99998C11.9999 7.72225 11.8577 8.43745 11.5813 9.10474C11.3049 9.77203 10.8997 10.3783 10.389 10.8891C9.87829 11.3998 9.27197 11.8049 8.60468 12.0813C7.93739 12.3577 7.22219 12.5 6.49992 12.5C5.77765 12.5 5.06245 12.3577 4.39516 12.0813C3.72787 11.8049 3.12156 11.3998 2.61083 10.8891C2.10011 10.3783 1.69498 9.77203 1.41858 9.10474C1.14218 8.43745 0.999921 7.72225 0.999921 6.99998C0.999921 5.54129 1.57938 4.14234 2.61083 3.11089C3.64228 2.07944 5.04123 1.49998 6.49992 1.49998C7.95861 1.49998 9.35756 2.07944 10.389 3.11089C11.4205 4.14234 11.9999 5.54129 11.9999 6.99998Z" fill="#888888"/>
</svg>
