<svg width="13" height="13" viewBox="0 0 13 13" fill="none" xmlns="http://www.w3.org/2000/svg">
<g clip-path="url(#clip0_3_10894)">
<path d="M5.29209 8.35156H4.16709V1.22656C4.16709 1.12711 4.12758 1.03172 4.05725 0.961397C3.98693 0.891071 3.89155 0.851563 3.79209 0.851563H3.04209C2.94263 0.851563 2.84725 0.891071 2.77692 0.961397C2.7066 1.03172 2.66709 1.12711 2.66709 1.22656V8.35156H1.54209C1.20951 8.35156 1.04146 8.75562 1.27748 8.99164L3.15248 11.2416C3.2228 11.3119 3.31814 11.3514 3.41756 11.3514C3.51697 11.3514 3.61232 11.3119 3.68264 11.2416L5.55764 8.99164C5.79248 8.75609 5.62537 8.35156 5.29209 8.35156ZM10.9171 6.85156H7.91709C7.81763 6.85156 7.72225 6.89107 7.65192 6.9614C7.5816 7.03172 7.54209 7.12711 7.54209 7.22656V7.97656C7.54209 8.07602 7.5816 8.1714 7.65192 8.24173C7.72225 8.31205 7.81763 8.35156 7.91709 8.35156H9.22959L7.79381 10.0027C7.71464 10.0731 7.65128 10.1595 7.60789 10.2561C7.5645 10.3527 7.54208 10.4574 7.54209 10.5634V10.9766C7.54209 11.076 7.5816 11.1714 7.65192 11.2417C7.72225 11.3121 7.81763 11.3516 7.91709 11.3516H10.9171C11.0165 11.3516 11.1119 11.3121 11.1823 11.2417C11.2526 11.1714 11.2921 11.076 11.2921 10.9766V10.2266C11.2921 10.1271 11.2526 10.0317 11.1823 9.9614C11.1119 9.89107 11.0165 9.85156 10.9171 9.85156H9.60459L11.0404 8.20039C11.1195 8.13002 11.1829 8.04367 11.2263 7.94704C11.2697 7.85041 11.2921 7.74569 11.2921 7.63977V7.22656C11.2921 7.12711 11.2526 7.03172 11.1823 6.9614C11.1119 6.89107 11.0165 6.85156 10.9171 6.85156ZM11.6451 4.85047L10.2559 1.10047C10.2299 1.02762 10.182 0.964591 10.1188 0.920031C10.0555 0.87547 9.98007 0.851555 9.90271 0.851563H8.93146C8.85411 0.851555 8.77864 0.87547 8.71541 0.920031C8.65218 0.964591 8.60427 1.02762 8.57826 1.10047L7.18912 4.85047C7.16892 4.90704 7.16261 4.96765 7.17072 5.02717C7.17882 5.0867 7.20111 5.1434 7.23571 5.19251C7.2703 5.24163 7.31619 5.28171 7.36951 5.30939C7.42283 5.33707 7.48201 5.35153 7.54209 5.35156H8.12404C8.20336 5.35159 8.28064 5.32647 8.34478 5.2798C8.40891 5.23314 8.45661 5.16735 8.481 5.09188L8.58459 4.78906H10.2487L10.352 5.09188C10.3764 5.1675 10.4243 5.23341 10.4886 5.28008C10.5529 5.32676 10.6304 5.35179 10.7099 5.35156H11.2921C11.3522 5.35153 11.4114 5.33707 11.4647 5.30939C11.518 5.28171 11.5639 5.24163 11.5985 5.19251C11.6331 5.1434 11.6554 5.0867 11.6635 5.02717C11.6716 4.96765 11.6653 4.90704 11.6451 4.85047ZM9.03295 3.47656L9.41709 2.35156L9.80123 3.47656H9.03295Z" fill="#262626"/>
</g>
<defs>
<clipPath id="clip0_3_10894">
<rect width="12" height="12" fill="white" transform="translate(0.417084 0.101562)"/>
</clipPath>
</defs>
</svg>
